<svg width="14" height="14" viewBox="0 0 14 14" fill="none" xmlns="http://www.w3.org/2000/svg">
<path d="M7 0.333313C3.31667 0.333313 0.333333 3.31665 0.333333 6.99998C0.332577 8.3995 0.772542 9.76372 1.59081 10.8991C2.40908 12.0345 3.5641 12.8834 4.892 13.3253C5.22533 13.3833 5.35 13.1833 5.35 13.008C5.35 12.85 5.34133 12.3253 5.34133 11.7666C3.66667 12.0753 3.23333 11.3586 3.1 10.9833C3.02467 10.7913 2.7 10.2 2.41667 10.0413C2.18333 9.91665 1.85 9.60798 2.408 9.59998C2.93333 9.59131 3.308 10.0833 3.43333 10.2833C4.03333 11.2913 4.992 11.008 5.37467 10.8333C5.43333 10.4 5.608 10.1086 5.8 9.94198C4.31667 9.77531 2.76667 9.19998 2.76667 6.64998C2.76667 5.92465 3.02467 5.32531 3.45 4.85798C3.38333 4.69131 3.15 4.00798 3.51667 3.09131C3.51667 3.09131 4.07467 2.91665 5.35 3.77531C5.89271 3.62469 6.45344 3.54888 7.01667 3.54998C7.58333 3.54998 8.15 3.62465 8.68333 3.77465C9.958 2.90798 10.5167 3.09198 10.5167 3.09198C10.8833 4.00865 10.65 4.69198 10.5833 4.85865C11.008 5.32531 11.2667 5.91665 11.2667 6.64998C11.2667 9.20865 9.70867 9.77531 8.22533 9.94198C8.46667 10.15 8.67533 10.55 8.67533 11.1753C8.67533 12.0666 8.66667 12.7833 8.66667 13.0086C8.66667 13.1833 8.792 13.3913 9.12533 13.3246C10.4487 12.8778 11.5986 12.0273 12.4133 10.8927C13.2279 9.75819 13.6663 8.39672 13.6667 6.99998C13.6667 3.31665 10.6833 0.333313 7 0.333313Z" fill="#616161"/>
</svg>
