<svg width="13" height="14" viewBox="0 0 13 14" fill="none" xmlns="http://www.w3.org/2000/svg">
<path d="M6.5 13.25C3.04813 13.25 0.25 10.4519 0.25 7C0.25 3.54813 3.04813 0.75 6.5 0.75C9.95187 0.75 12.75 3.54813 12.75 7C12.75 10.4519 9.95187 13.25 6.5 13.25ZM6.5 12C7.82608 12 9.09785 11.4732 10.0355 10.5355C10.9732 9.59785 11.5 8.32608 11.5 7C11.5 5.67392 10.9732 4.40215 10.0355 3.46447C9.09785 2.52678 7.82608 2 6.5 2C5.17392 2 3.90215 2.52678 2.96447 3.46447C2.02678 4.40215 1.5 5.67392 1.5 7C1.5 8.32608 2.02678 9.59785 2.96447 10.5355C3.90215 11.4732 5.17392 12 6.5 12ZM4.3125 8.25H7.75C7.83288 8.25 7.91237 8.21708 7.97097 8.15847C8.02958 8.09987 8.0625 8.02038 8.0625 7.9375C8.0625 7.85462 8.02958 7.77513 7.97097 7.71653C7.91237 7.65792 7.83288 7.625 7.75 7.625H5.25C4.8356 7.625 4.43817 7.46038 4.14515 7.16735C3.85212 6.87433 3.6875 6.4769 3.6875 6.0625C3.6875 5.6481 3.85212 5.25067 4.14515 4.95765C4.43817 4.66462 4.8356 4.5 5.25 4.5H5.875V3.25H7.125V4.5H8.6875V5.75H5.25C5.16712 5.75 5.08763 5.78292 5.02903 5.84153C4.97042 5.90013 4.9375 5.97962 4.9375 6.0625C4.9375 6.14538 4.97042 6.22487 5.02903 6.28347C5.08763 6.34208 5.16712 6.375 5.25 6.375H7.75C8.1644 6.375 8.56183 6.53962 8.85485 6.83265C9.14788 7.12567 9.3125 7.5231 9.3125 7.9375C9.3125 8.3519 9.14788 8.74933 8.85485 9.04235C8.56183 9.33538 8.1644 9.5 7.75 9.5H7.125V10.75H5.875V9.5H4.3125V8.25Z" fill="#8E8E8E"/>
</svg>
